<mxfile host="app.diagrams.net" modified="2021-11-22T15:38:32.897Z" agent="5.0 (Macintosh; Intel Mac OS X 10_15_7) AppleWebKit/605.1.15 (KHTML, like Gecko) Version/15.1 Safari/605.1.15" etag="QsIjhjbrjkkaQNPaJe7T" version="15.8.3" type="github">
  <diagram name="Page-1" id="9c096ad6-e400-ecc8-3e38-643d2caac077">
    <mxGraphModel dx="977" dy="770" grid="1" gridSize="10" guides="1" tooltips="1" connect="1" arrows="1" fold="1" page="1" pageScale="1.5" pageWidth="1169" pageHeight="826" background="none" math="0" shadow="0">
      <root>
        <mxCell id="0" style=";html=1;" />
        <mxCell id="1" style=";html=1;" parent="0" />
        <mxCell id="3cfceab9cabfe5b9-22" style="edgeStyle=none;curved=1;html=1;startSize=10;endArrow=classic;endFill=1;endSize=10;strokeColor=#FF0000;strokeWidth=1;fontSize=12;" parent="1" source="30e23a8a0b95c500-1" target="3cfceab9cabfe5b9-9" edge="1">
          <mxGeometry relative="1" as="geometry" />
        </mxCell>
        <mxCell id="3cfceab9cabfe5b9-26" style="edgeStyle=none;curved=1;html=1;startSize=10;endArrow=classic;endFill=1;endSize=10;strokeColor=#FF0000;strokeWidth=1;fontSize=12;" parent="1" source="30e23a8a0b95c500-1" target="3cfceab9cabfe5b9-10" edge="1">
          <mxGeometry relative="1" as="geometry" />
        </mxCell>
        <mxCell id="3cfceab9cabfe5b9-37" style="edgeStyle=none;curved=1;html=1;startSize=10;endArrow=classic;endFill=1;endSize=10;strokeWidth=1;fontSize=12;" parent="1" source="30e23a8a0b95c500-1" target="3cfceab9cabfe5b9-11" edge="1">
          <mxGeometry relative="1" as="geometry" />
        </mxCell>
        <mxCell id="30e23a8a0b95c500-1" value="&lt;h4&gt;&lt;font style=&quot;font-size: 18px&quot; color=&quot;#cc0000&quot;&gt;Docker Engine&lt;/font&gt;&lt;/h4&gt;" style="text;html=1;strokeColor=#FF0000;fillColor=#f5f5f5;overflow=fill;rounded=0;shadow=1;fontSize=12;align=center;" parent="1" vertex="1">
          <mxGeometry x="167" y="432" width="150" height="60" as="geometry" />
        </mxCell>
        <mxCell id="3cfceab9cabfe5b9-8" value="Volume&lt;br&gt;Persist Data" style="text;html=1;strokeColor=#FF0000;fillColor=#f5f5f5;overflow=fill;rounded=0;shadow=1;fontSize=12;align=center;" parent="1" vertex="1">
          <mxGeometry x="650" y="432" width="150" height="60" as="geometry" />
        </mxCell>
        <mxCell id="3cfceab9cabfe5b9-9" value="&lt;font color=&quot;#cc0000&quot; style=&quot;font-size: 18px&quot;&gt;CLI&lt;br&gt;&lt;/font&gt;Execute Docker Commands&lt;font color=&quot;#cc0000&quot; style=&quot;font-size: 18px&quot;&gt;&lt;br&gt;&lt;/font&gt;" style="text;html=1;strokeColor=#FF0000;fillColor=#f5f5f5;overflow=fill;rounded=0;shadow=1;fontSize=12;align=center;" parent="1" vertex="1">
          <mxGeometry x="330" y="260" width="150" height="60" as="geometry" />
        </mxCell>
        <mxCell id="3cfceab9cabfe5b9-27" style="edgeStyle=none;curved=1;html=1;startSize=10;endArrow=classic;endFill=1;endSize=10;strokeColor=#FF0000;strokeWidth=1;fontSize=12;" parent="1" source="3cfceab9cabfe5b9-10" target="3cfceab9cabfe5b9-12" edge="1">
          <mxGeometry relative="1" as="geometry" />
        </mxCell>
        <mxCell id="3cfceab9cabfe5b9-29" style="edgeStyle=none;curved=1;html=1;startSize=10;endArrow=classic;endFill=1;endSize=10;strokeColor=#FF0000;strokeWidth=1;fontSize=12;" parent="1" source="3cfceab9cabfe5b9-10" target="3cfceab9cabfe5b9-8" edge="1">
          <mxGeometry relative="1" as="geometry" />
        </mxCell>
        <mxCell id="3cfceab9cabfe5b9-43" style="edgeStyle=none;curved=1;html=1;startSize=10;endArrow=classic;endFill=1;endSize=10;strokeColor=#FF0000;strokeWidth=1;fontSize=12;" parent="1" source="3cfceab9cabfe5b9-10" target="3cfceab9cabfe5b9-13" edge="1">
          <mxGeometry relative="1" as="geometry" />
        </mxCell>
        <mxCell id="3cfceab9cabfe5b9-10" value="&lt;font style=&quot;font-size: 18px&quot; color=&quot;#cc0000&quot;&gt;Server&lt;/font&gt;&lt;br&gt;Pull Images&lt;br&gt;Manage Image and Container&amp;nbsp;" style="text;html=1;strokeColor=#FF0000;fillColor=#f5f5f5;overflow=fill;rounded=0;shadow=1;fontSize=12;align=center;" parent="1" vertex="1">
          <mxGeometry x="390" y="432" width="180" height="60" as="geometry" />
        </mxCell>
        <mxCell id="3cfceab9cabfe5b9-38" style="edgeStyle=none;curved=1;html=1;startSize=10;endArrow=classic;endFill=1;endSize=10;strokeWidth=1;fontSize=12;exitX=1;exitY=0.5;exitDx=0;exitDy=0;" parent="1" source="3cfceab9cabfe5b9-11" target="3cfceab9cabfe5b9-15" edge="1">
          <mxGeometry relative="1" as="geometry" />
        </mxCell>
        <mxCell id="3cfceab9cabfe5b9-58" style="edgeStyle=none;curved=1;html=1;startSize=10;endArrow=classic;endFill=1;endSize=10;strokeWidth=1;fontSize=12;exitX=0.75;exitY=1;exitDx=0;exitDy=0;entryX=0;entryY=0;entryDx=0;entryDy=0;strokeColor=#CC0000;" parent="1" source="3cfceab9cabfe5b9-10" edge="1" target="3cfceab9cabfe5b9-19">
          <mxGeometry relative="1" as="geometry">
            <mxPoint x="620" y="670" as="targetPoint" />
          </mxGeometry>
        </mxCell>
        <mxCell id="3cfceab9cabfe5b9-11" value="&lt;font color=&quot;#cc0000&quot; style=&quot;font-size: 18px&quot;&gt;API&lt;/font&gt;&lt;br&gt;Interact with Docker Server" style="text;html=1;strokeColor=#666666;fillColor=#f5f5f5;overflow=fill;rounded=0;shadow=1;fontSize=12;align=center;" parent="1" vertex="1">
          <mxGeometry x="320" y="620" width="160" height="60" as="geometry" />
        </mxCell>
        <mxCell id="3cfceab9cabfe5b9-12" value="Container Runtime&lt;br&gt;Pull Image&lt;br&gt;Manage Container Life Cycle" style="text;html=1;strokeColor=#FF0000;fillColor=#f5f5f5;overflow=fill;rounded=0;shadow=1;fontSize=12;align=center;" parent="1" vertex="1">
          <mxGeometry x="650" y="310" width="150" height="60" as="geometry" />
        </mxCell>
        <mxCell id="3cfceab9cabfe5b9-13" value="Network&lt;br&gt;Configure container comm" style="text;html=1;strokeColor=#FF0000;fillColor=#f5f5f5;overflow=fill;rounded=0;shadow=1;fontSize=12;align=center;" parent="1" vertex="1">
          <mxGeometry x="650" y="540" width="150" height="60" as="geometry" />
        </mxCell>
        <mxCell id="3cfceab9cabfe5b9-15" value="&lt;table border=&quot;1&quot; width=&quot;100%&quot; style=&quot;width: 100% ; height: 100% ; border-collapse: collapse&quot;&gt;&lt;tbody&gt;&lt;tr&gt;&lt;td colspan=&quot;2&quot; align=&quot;center&quot;&gt;&lt;font style=&quot;font-size: 12px&quot;&gt;Title&lt;/font&gt;&lt;/td&gt;&lt;/tr&gt;&lt;tr&gt;&lt;td align=&quot;center&quot;&gt;20&lt;/td&gt;&lt;td align=&quot;center&quot;&gt;&lt;font style=&quot;font-size: 12px&quot;&gt;1 day&lt;/font&gt;&lt;/td&gt;&lt;/tr&gt;&lt;tr&gt;&lt;td align=&quot;center&quot;&gt;&lt;font style=&quot;font-size: 12px&quot;&gt;Mon 1/2&lt;/font&gt;&lt;/td&gt;&lt;td align=&quot;center&quot;&gt;&lt;font style=&quot;font-size: 12px&quot;&gt;Mon 2/2&lt;/font&gt;&lt;/td&gt;&lt;/tr&gt;&lt;/tbody&gt;&lt;/table&gt;" style="text;html=1;strokeColor=#666666;fillColor=#f5f5f5;overflow=fill;rounded=0;shadow=1;fontSize=12;align=center;" parent="1" vertex="1">
          <mxGeometry x="480" y="780" width="150" height="60" as="geometry" />
        </mxCell>
        <mxCell id="3cfceab9cabfe5b9-19" value="Build Images" style="text;html=1;strokeColor=#FF0000;fillColor=#f5f5f5;overflow=fill;rounded=0;shadow=1;fontSize=12;align=center;" parent="1" vertex="1">
          <mxGeometry x="650" y="640" width="150" height="60" as="geometry" />
        </mxCell>
      </root>
    </mxGraphModel>
  </diagram>
</mxfile>
